<?xml version="1.0" encoding="UTF-8"?>
<!DOCTYPE svg PUBLIC "-//W3C//DTD SVG 1.1//EN" "http://www.w3.org/Graphics/SVG/1.1/DTD/svg11.dtd">
<svg xmlns="http://www.w3.org/2000/svg" version="1.1" width="500px" height="500px" style="shape-rendering:geometricPrecision; text-rendering:geometricPrecision; image-rendering:optimizeQuality; fill-rule:evenodd; clip-rule:evenodd" xmlns:xlink="http://www.w3.org/1999/xlink">
<g><path style="opacity:1" fill="#f8fcff" d="M -0.5,-0.5 C 166.167,-0.5 332.833,-0.5 499.5,-0.5C 499.5,3.5 499.5,7.5 499.5,11.5C 332.833,11.5 166.167,11.5 -0.5,11.5C -0.5,7.5 -0.5,3.5 -0.5,-0.5 Z"/></g>
<g><path style="opacity:1" fill="#37b5fe" d="M -0.5,11.5 C 166.167,11.5 332.833,11.5 499.5,11.5C 499.5,174.167 499.5,336.833 499.5,499.5C 332.833,499.5 166.167,499.5 -0.5,499.5C -0.5,336.833 -0.5,174.167 -0.5,11.5 Z"/></g>
<g><path style="opacity:1" fill="#020608" d="M 186.5,174.5 C 195.523,174.062 198.189,177.895 194.5,186C 185.816,189.645 181.982,186.812 183,177.5C 184.145,176.364 185.312,175.364 186.5,174.5 Z"/></g>
<g><path style="opacity:1" fill="#020407" d="M 262.5,175.5 C 266.167,175.5 269.833,175.5 273.5,175.5C 273.172,187.345 273.505,199.012 274.5,210.5C 279.677,205.485 284.344,199.985 288.5,194C 292.5,193.333 296.5,193.333 300.5,194C 295.121,200.607 290.121,207.441 285.5,214.5C 290.783,222.889 296.45,231.055 302.5,239C 298.167,239.667 293.833,239.667 289.5,239C 284.955,232.744 280.288,226.577 275.5,220.5C 274.504,226.798 274.17,233.132 274.5,239.5C 270.5,239.5 266.5,239.5 262.5,239.5C 262.5,218.167 262.5,196.833 262.5,175.5 Z"/></g>
<g><path style="opacity:1" fill="#10374c" d="M 262.5,175.5 C 266.298,174.517 270.298,174.183 274.5,174.5C 274.5,186.5 274.5,198.5 274.5,210.5C 273.505,199.012 273.172,187.345 273.5,175.5C 269.833,175.5 266.167,175.5 262.5,175.5 Z"/></g>
<g><path style="opacity:1" fill="#000000" d="M 135.5,178.5 C 139.5,178.5 143.5,178.5 147.5,178.5C 147.5,195.5 147.5,212.5 147.5,229.5C 156.5,229.5 165.5,229.5 174.5,229.5C 174.5,232.833 174.5,236.167 174.5,239.5C 161.5,239.5 148.5,239.5 135.5,239.5C 135.5,219.167 135.5,198.833 135.5,178.5 Z"/></g>
<g><path style="opacity:1" fill="#03080c" d="M 183.5,193.5 C 187.5,193.5 191.5,193.5 195.5,193.5C 195.5,208.833 195.5,224.167 195.5,239.5C 191.5,239.5 187.5,239.5 183.5,239.5C 183.5,224.167 183.5,208.833 183.5,193.5 Z"/></g>
<g><path style="opacity:1" fill="#03070a" d="M 229.5,192.5 C 236.206,191.407 242.039,193.074 247,197.5C 247.667,198.833 248.333,200.167 249,201.5C 250.441,214.092 250.941,226.759 250.5,239.5C 246.5,239.5 242.5,239.5 238.5,239.5C 238.667,228.495 238.5,217.495 238,206.5C 236.471,203.484 233.971,202.151 230.5,202.5C 225.967,202.349 222.8,204.349 221,208.5C 220.5,218.828 220.334,229.161 220.5,239.5C 216.5,239.5 212.5,239.5 208.5,239.5C 208.5,224.167 208.5,208.833 208.5,193.5C 212.167,193.5 215.833,193.5 219.5,193.5C 219.192,195.924 219.526,198.257 220.5,200.5C 222.926,197.068 225.926,194.401 229.5,192.5 Z"/></g>
<g><path style="opacity:1" fill="#020406" d="M 303.5,194.5 C 307.566,193.178 311.733,193.178 316,194.5C 319.541,204.959 323.375,215.292 327.5,225.5C 331.362,215.248 335.029,204.915 338.5,194.5C 342.5,193.167 346.5,193.167 350.5,194.5C 343.706,211.383 337.206,228.383 331,245.5C 325.863,257.117 317.029,261.283 304.5,258C 303.862,254.929 303.862,251.763 304.5,248.5C 308.514,248.666 312.514,248.499 316.5,248C 319.128,246.431 320.795,244.098 321.5,241C 315.766,225.283 309.766,209.783 303.5,194.5 Z"/></g>
<g><path style="opacity:1" fill="#000000" d="M 318.5,267.5 C 318.5,268.5 318.5,269.5 318.5,270.5C 265.5,270.5 212.5,270.5 159.5,270.5C 159.5,269.5 159.5,268.5 159.5,267.5C 212.5,267.5 265.5,267.5 318.5,267.5 Z"/></g>
<g><path style="opacity:1" fill="#1c5b7f" d="M 318.5,267.5 C 265.5,267.5 212.5,267.5 159.5,267.5C 159.5,268.5 159.5,269.5 159.5,270.5C 212.5,270.5 265.5,270.5 318.5,270.5C 265.336,271.499 212.003,271.832 158.5,271.5C 158.5,269.833 158.5,268.167 158.5,266.5C 212.003,266.168 265.336,266.501 318.5,267.5 Z"/></g>
</svg>
